<svg xmlns="http://www.w3.org/2000/svg" xmlns:xlink="http://www.w3.org/1999/xlink" width="500" zoomAndPan="magnify" viewBox="0 0 375 374.999991" height="500" preserveAspectRatio="xMidYMid meet" version="1.0"><defs><clipPath id="eee338c7fa"><path d="M 116 34.070312 L 259 34.070312 L 259 186 L 116 186 Z M 116 34.070312 " clip-rule="nonzero"/></clipPath><clipPath id="d49111d793"><path d="M 54.246094 186 L 320.496094 186 L 320.496094 326.570312 L 54.246094 326.570312 Z M 54.246094 186 " clip-rule="nonzero"/></clipPath><clipPath id="40d2424da8"><path d="M 167.574219 222.507812 L 235.824219 222.507812 L 235.824219 290.757812 L 167.574219 290.757812 Z M 167.574219 222.507812 " clip-rule="nonzero"/></clipPath></defs><g clip-path="url(#eee338c7fa)"><path fill="#ffffff" d="M 187.5 185.773438 C 226.648438 185.773438 258.496094 144.222656 258.496094 105.074219 C 258.496094 65.925781 226.648438 34.070312 187.5 34.070312 C 148.347656 34.070312 116.496094 65.925781 116.496094 105.074219 C 116.503906 144.21875 148.351562 185.773438 187.5 185.773438 Z M 187.5 185.773438 " fill-opacity="1" fill-rule="nonzero"/></g><g clip-path="url(#d49111d793)"><path fill="#ffffff" d="M 240.796875 186.5 C 227.027344 196.996094 209.847656 203.238281 191.234375 203.238281 L 183.761719 203.238281 C 165.148438 203.238281 147.964844 196.992188 134.195312 186.5 C 89.226562 193.769531 54.886719 232.746094 54.886719 279.761719 C 54.886719 305.589844 114.257812 326.535156 187.5 326.535156 C 260.734375 326.535156 320.109375 305.589844 320.109375 279.761719 C 320.109375 232.746094 285.765625 193.769531 240.796875 186.5 Z M 240.796875 186.5 " fill-opacity="1" fill-rule="nonzero"/></g><g clip-path="url(#40d2424da8)"><path fill="#ffffff" d="M 235.824219 256.632812 C 235.824219 257.75 235.769531 258.867188 235.660156 259.980469 C 235.550781 261.089844 235.386719 262.195312 235.167969 263.292969 C 234.949219 264.386719 234.679688 265.46875 234.355469 266.539062 C 234.03125 267.609375 233.652344 268.660156 233.226562 269.691406 C 232.796875 270.726562 232.320312 271.734375 231.792969 272.71875 C 231.265625 273.707031 230.695312 274.664062 230.074219 275.59375 C 229.453125 276.523438 228.785156 277.417969 228.078125 278.28125 C 227.367188 279.148438 226.617188 279.972656 225.828125 280.765625 C 225.039062 281.554688 224.210938 282.304688 223.347656 283.011719 C 222.484375 283.722656 221.585938 284.386719 220.65625 285.007812 C 219.726562 285.628906 218.769531 286.203125 217.785156 286.730469 C 216.800781 287.257812 215.789062 287.734375 214.757812 288.160156 C 213.726562 288.589844 212.675781 288.964844 211.605469 289.289062 C 210.535156 289.613281 209.453125 289.886719 208.355469 290.101562 C 207.261719 290.320312 206.15625 290.484375 205.042969 290.59375 C 203.929688 290.703125 202.816406 290.757812 201.699219 290.757812 C 200.582031 290.757812 199.464844 290.703125 198.355469 290.59375 C 197.242188 290.484375 196.136719 290.320312 195.042969 290.101562 C 193.945312 289.886719 192.863281 289.613281 191.792969 289.289062 C 190.722656 288.964844 189.671875 288.589844 188.640625 288.160156 C 187.605469 287.734375 186.597656 287.257812 185.613281 286.730469 C 184.625 286.203125 183.667969 285.628906 182.738281 285.007812 C 181.8125 284.386719 180.914062 283.722656 180.050781 283.011719 C 179.1875 282.304688 178.359375 281.554688 177.570312 280.765625 C 176.777344 279.972656 176.027344 279.148438 175.320312 278.28125 C 174.609375 277.417969 173.945312 276.523438 173.324219 275.59375 C 172.703125 274.664062 172.128906 273.707031 171.601562 272.71875 C 171.078125 271.734375 170.597656 270.726562 170.171875 269.691406 C 169.742188 268.660156 169.367188 267.609375 169.042969 266.539062 C 168.71875 265.46875 168.449219 264.386719 168.230469 263.292969 C 168.011719 262.195312 167.847656 261.089844 167.738281 259.980469 C 167.628906 258.867188 167.574219 257.75 167.574219 256.632812 C 167.574219 255.515625 167.628906 254.402344 167.738281 253.289062 C 167.847656 252.175781 168.011719 251.074219 168.230469 249.976562 C 168.449219 248.878906 168.71875 247.796875 169.042969 246.726562 C 169.367188 245.660156 169.742188 244.609375 170.171875 243.574219 C 170.597656 242.542969 171.078125 241.535156 171.601562 240.546875 C 172.128906 239.5625 172.703125 238.605469 173.324219 237.675781 C 173.945312 236.746094 174.609375 235.847656 175.320312 234.984375 C 176.027344 234.121094 176.777344 233.292969 177.570312 232.503906 C 178.359375 231.714844 179.1875 230.964844 180.050781 230.253906 C 180.914062 229.546875 181.8125 228.882812 182.738281 228.261719 C 183.667969 227.640625 184.625 227.066406 185.613281 226.539062 C 186.597656 226.011719 187.605469 225.535156 188.640625 225.105469 C 189.671875 224.679688 190.722656 224.304688 191.792969 223.980469 C 192.863281 223.652344 193.945312 223.382812 195.042969 223.164062 C 196.136719 222.945312 197.242188 222.78125 198.355469 222.671875 C 199.464844 222.5625 200.582031 222.507812 201.699219 222.507812 C 202.816406 222.507812 203.929688 222.5625 205.042969 222.671875 C 206.15625 222.78125 207.261719 222.945312 208.355469 223.164062 C 209.453125 223.382812 210.535156 223.652344 211.605469 223.980469 C 212.675781 224.304688 213.726562 224.679688 214.757812 225.105469 C 215.789062 225.535156 216.800781 226.011719 217.785156 226.539062 C 218.769531 227.066406 219.726562 227.640625 220.65625 228.261719 C 221.585938 228.882812 222.484375 229.546875 223.347656 230.253906 C 224.210938 230.964844 225.039062 231.714844 225.828125 232.503906 C 226.617188 233.292969 227.367188 234.121094 228.078125 234.984375 C 228.785156 235.847656 229.453125 236.746094 230.074219 237.675781 C 230.695312 238.605469 231.265625 239.5625 231.792969 240.546875 C 232.320312 241.535156 232.796875 242.542969 233.226562 243.574219 C 233.652344 244.609375 234.03125 245.660156 234.355469 246.726562 C 234.679688 247.796875 234.949219 248.878906 235.167969 249.976562 C 235.386719 251.074219 235.550781 252.175781 235.660156 253.289062 C 235.769531 254.402344 235.824219 255.515625 235.824219 256.632812 Z M 235.824219 256.632812 " fill-opacity="1" fill-rule="nonzero"/></g></svg>